<svg viewBox="0 0 1040 400" xmlns="http://www.w3.org/2000/svg"><path d="m-2.6-2.02h1045.16v343.45h-1045.16z" fill="#034ea6"/><g fill="none" stroke="#0572ec" stroke-linecap="round" stroke-linejoin="round"><g opacity=".5" stroke-width="2.66"><path d="m235.77 313.89h105.03v37.06h-105.03z"/><path d="m156.92 313.66h79.55v37.06h-79.55z"/><path d="m183.38 276.65h79.55v37.06h-79.55z"/><path d="m209.4 239.37h79.54v37.06h-79.54"/><path d="m261.18 202.52h79.55v37.06h-79.55"/><path d="m342.48 313.78h-79.55v-37.06h79.55"/><path d="m417.55 276.83h79.55v37.06h-79.55z"/><path d="m104.4 313.61h52.52v37.11h-52.52"/><path d="m130.92 276.4h52.51v37.12h-52.51"/><path d="m418.08 313.89h105.03v37.06h-105.03z"/><path d="m445.27 165.38h79.55v37.06h-79.55z"/><path d="m455.24 157.52h6.66a4.46 4.46 0 0 1 4.46 4.46v3.39a0 0 0 0 1 0 0h-15.58a0 0 0 0 1 0 0v-3.37a4.46 4.46 0 0 1 4.46-4.48z"/><path d="m481.26 157.52h6.66a4.46 4.46 0 0 1 4.46 4.46v3.39a0 0 0 0 1 0 0h-15.59a0 0 0 0 1 0 0v-3.37a4.46 4.46 0 0 1 4.47-4.48z"/><path d="m507.27 157.52h6.66a4.46 4.46 0 0 1 4.47 4.48v3.39a0 0 0 0 1 0 0h-15.59a0 0 0 0 1 0 0v-3.39a4.46 4.46 0 0 1 4.46-4.48z"/><path d="m340.09 313.81h78.13v37.06h-78.13z"/><path d="m339.95 276.65h78.13v37.06h-78.13z"/><path d="m393.38 239.77h79.55v37.06h-79.55z"/><path d="m419.18 202.37h78.13v37.06h-78.13z"/><path d="m288.36 239.47h105.03v37.06h-105.03z"/><path d="m340.9 202.16h78.13v37.06h-78.13z"/><path d="m304.69 165.38h140.57v37.05h-105.02"/><path d="m376.23 157.52h6.66a4.46 4.46 0 0 1 4.46 4.46v3.39a0 0 0 0 1 0 0h-15.58a0 0 0 0 1 0 0v-3.37a4.46 4.46 0 0 1 4.46-4.48z"/><path d="m402.24 157.52h6.66a4.46 4.46 0 0 1 4.46 4.46v3.39a0 0 0 0 1 0 0h-15.58a0 0 0 0 1 0 0v-3.37a4.46 4.46 0 0 1 4.46-4.48z"/><path d="m428.26 157.52h6.66a4.46 4.46 0 0 1 4.46 4.46v3.39a0 0 0 0 1 0 0h-15.59a0 0 0 0 1 0 0v-3.37a4.46 4.46 0 0 1 4.47-4.48z"/></g><g opacity=".5"><g stroke-width="2.71"><path d="m593 305.38h6.61a4.37 4.37 0 0 1 4.37 4.37v3.25a0 0 0 0 1 0 0h-15.37a0 0 0 0 1 0 0v-3.28a4.37 4.37 0 0 1 4.39-4.34z"/><path d="m618.59 305.38h6.61a4.37 4.37 0 0 1 4.37 4.37v3.25a0 0 0 0 1 0 0h-15.35a0 0 0 0 1 0 0v-3.28a4.37 4.37 0 0 1 4.37-4.34z"/><path d="m644.19 305.38h6.61a4.37 4.37 0 0 1 4.37 4.37v3.25a0 0 0 0 1 0 0h-15.35a0 0 0 0 1 0 0v-3.28a4.37 4.37 0 0 1 4.37-4.34z"/><path d="m593.17 269.14h6.61a4.37 4.37 0 0 1 4.37 4.37v3.28a0 0 0 0 1 0 0h-15.35a0 0 0 0 1 0 0v-3.28a4.37 4.37 0 0 1 4.37-4.37z"/><path d="m618.78 269.14h6.61a4.37 4.37 0 0 1 4.37 4.37v3.28a0 0 0 0 1 0 0h-15.35a0 0 0 0 1 0 0v-3.28a4.37 4.37 0 0 1 4.37-4.37z"/><path d="m592.59 160.8h6.61a4.37 4.37 0 0 1 4.37 4.37v3.28a0 0 0 0 1 0 0h-15.35a0 0 0 0 1 0 0v-3.28a4.37 4.37 0 0 1 4.37-4.37z"/><path d="m618.19 160.8h6.61a4.37 4.37 0 0 1 4.37 4.37v3.28a0 0 0 0 1 0 0h-15.35a0 0 0 0 1 0 0v-3.28a4.37 4.37 0 0 1 4.37-4.37z"/><path d="m594.31 233h6.61a4.37 4.37 0 0 1 4.37 4.37v3.28a0 0 0 0 1 0 0h-15.35a0 0 0 0 1 0 0v-3.28a4.37 4.37 0 0 1 4.37-4.37z"/><path d="m619.92 233h6.61a4.37 4.37 0 0 1 4.37 4.37v3.28a0 0 0 0 1 0 0h-15.35a0 0 0 0 1 0 0v-3.28a4.37 4.37 0 0 1 4.37-4.37z"/><path d="m711.11 240.73h78.31v36.05h-78.31z"/><path d="m720.91 233.09h6.61a4.37 4.37 0 0 1 4.37 4.37v3.28a0 0 0 0 1 0 0h-15.35a0 0 0 0 1 0 0v-3.28a4.37 4.37 0 0 1 4.37-4.37z"/><path d="m746.51 233.09h6.61a4.37 4.37 0 0 1 4.37 4.37v3.28a0 0 0 0 1 0 0h-15.35a0 0 0 0 1 0 0v-3.28a4.37 4.37 0 0 1 4.37-4.37z"/><path d="m772.12 233.09h6.61a4.37 4.37 0 0 1 4.37 4.37v3.28a0 0 0 0 1 0 0h-15.35a0 0 0 0 1 0 0v-3.28a4.37 4.37 0 0 1 4.37-4.37z"/><path d="m915.34 312.74h-23.69v-36.1h51.7"/><path d="m747.45 305.38h6.61a4.37 4.37 0 0 1 4.37 4.37v3.25a0 0 0 0 1 0 0h-15.35a0 0 0 0 1 0 0v-3.28a4.37 4.37 0 0 1 4.37-4.34z"/><path d="m773.06 305.38h6.61a4.37 4.37 0 0 1 4.37 4.37v3.25a0 0 0 0 1 0 0h-15.35a0 0 0 0 1 0 0v-3.28a4.37 4.37 0 0 1 4.37-4.34z"/><path d="m720.64 305.19h7.74a4.6 4.6 0 0 1 4.6 4.6v3.08a0 0 0 0 1 0 0h-16.98a0 0 0 0 1 0 0v-3.08a4.6 4.6 0 0 1 4.64-4.6z"/><path d="m711.63 276.78h103.39v36.05h-103.39z"/><path d="m721.43 269.14h6.57a4.37 4.37 0 0 1 4.37 4.37v3.28a0 0 0 0 1 0 0h-15.31a0 0 0 0 1 0 0v-3.28a4.37 4.37 0 0 1 4.37-4.37z"/><path d="m747 269.14h6.61a4.37 4.37 0 0 1 4.37 4.37v3.28a0 0 0 0 1 0 0h-15.32a0 0 0 0 1 0 0v-3.28a4.37 4.37 0 0 1 4.34-4.37z"/><path d="m772.64 269.14h6.61a4.37 4.37 0 0 1 4.37 4.37v3.28a0 0 0 0 1 0 0h-15.35a0 0 0 0 1 0 0v-3.28a4.37 4.37 0 0 1 4.37-4.37z"/><path d="m669.87 305.06h6.61a4.37 4.37 0 0 1 4.37 4.37v3.28a0 0 0 0 1 0 0h-15.35a0 0 0 0 1 0 0v-3.28a4.37 4.37 0 0 1 4.37-4.37z"/><path d="m695.35 305.06h6.65a4.37 4.37 0 0 1 4.37 4.37v3.28a0 0 0 0 1 0 0h-15.37a0 0 0 0 1 0 0v-3.28a4.37 4.37 0 0 1 4.35-4.37z"/><path d="m634.85 276.71h76.91v36.05h-76.91z"/><path d="m644.65 269.06h6.61a4.37 4.37 0 0 1 4.37 4.37v3.28a0 0 0 0 1 0 0h-15.35a0 0 0 0 1 0 0v-3.28a4.37 4.37 0 0 1 4.37-4.37z"/><path d="m670.26 269.06h6.61a4.37 4.37 0 0 1 4.37 4.37v3.28a0 0 0 0 1 0 0h-15.35a0 0 0 0 1 0 0v-3.28a4.37 4.37 0 0 1 4.37-4.37z"/><path d="m695.87 269.06h6.61a4.37 4.37 0 0 1 4.37 4.37v3.28a0 0 0 0 1 0 0h-15.35a0 0 0 0 1 0 0v-3.28a4.37 4.37 0 0 1 4.37-4.37z"/><path d="m634.72 240.56h76.91v36.05h-76.91z"/><path d="m644.52 232.91h6.61a4.37 4.37 0 0 1 4.37 4.37v3.28a0 0 0 0 1 0 0h-15.35a0 0 0 0 1 0 0v-3.28a4.37 4.37 0 0 1 4.37-4.37z"/><path d="m670.12 232.91h6.61a4.37 4.37 0 0 1 4.37 4.37v3.28a0 0 0 0 1 0 0h-15.35a0 0 0 0 1 0 0v-3.28a4.37 4.37 0 0 1 4.37-4.37z"/><path d="m695.73 232.91h6.61a4.37 4.37 0 0 1 4.37 4.37v3.28a0 0 0 0 1 0 0h-15.35a0 0 0 0 1 0 0v-3.28a4.37 4.37 0 0 1 4.37-4.37z"/><path d="m687.32 204.68h78.31v36.05h-78.31z"/><path d="m697.12 197h6.61a4.37 4.37 0 0 1 4.37 4.37v3.28a0 0 0 0 1 0 0h-15.35a0 0 0 0 1 0 0v-3.25a4.37 4.37 0 0 1 4.37-4.4z"/><path d="m722.72 197h6.61a4.37 4.37 0 0 1 4.37 4.37v3.28a0 0 0 0 1 0 0h-15.35a0 0 0 0 1 0 0v-3.25a4.37 4.37 0 0 1 4.37-4.4z"/><path d="m748.33 197h6.61a4.37 4.37 0 0 1 4.37 4.37v3.28a0 0 0 0 1 0 0h-15.31a0 0 0 0 1 0 0v-3.25a4.37 4.37 0 0 1 4.33-4.4z"/><path d="m789.62 204.34h-76.91v-36.05h76.91"/><path d="m583.93 204.39h103.39v36.05h-103.39z"/><path d="m593.73 196.74h6.61a4.37 4.37 0 0 1 4.37 4.37v3.28a0 0 0 0 1 0 0h-15.35a0 0 0 0 1 0 0v-3.28a4.37 4.37 0 0 1 4.37-4.37z"/><path d="m619.34 196.74h6.61a4.37 4.37 0 0 1 4.37 4.37v3.28a0 0 0 0 1 0 0h-15.32a0 0 0 0 1 0 0v-3.28a4.37 4.37 0 0 1 4.34-4.37z"/><path d="m644.94 196.74h6.61a4.37 4.37 0 0 1 4.37 4.37v3.28a0 0 0 0 1 0 0h-15.35a0 0 0 0 1 0 0v-3.28a4.37 4.37 0 0 1 4.37-4.37z"/><path d="m670.55 196.74h6.61a4.37 4.37 0 0 1 4.37 4.37v3.28a0 0 0 0 1 0 0h-15.35a0 0 0 0 1 0 0v-3.28a4.37 4.37 0 0 1 4.37-4.37z"/><path d="m841.16 240.63h-76.91v-36.05h76.91"/><path d="m774.05 196.93h6.61a4.37 4.37 0 0 1 4.34 4.37v3.28a0 0 0 0 1 0 0h-15.32a0 0 0 0 1 0 0v-3.28a4.37 4.37 0 0 1 4.37-4.37z"/><path d="m635.66 168.09h76.91v36.05h-76.91z"/><path d="m645.45 160.44h6.61a4.37 4.37 0 0 1 4.37 4.37v3.28a0 0 0 0 1 0 0h-15.34a0 0 0 0 1 0 0v-3.28a4.37 4.37 0 0 1 4.36-4.37z"/><path d="m671.06 160.44h6.61a4.37 4.37 0 0 1 4.37 4.37v3.28a0 0 0 0 1 0 0h-15.35a0 0 0 0 1 0 0v-3.28a4.37 4.37 0 0 1 4.37-4.37z"/><path d="m866.03 276.78h-76.9v-36.05h76.9"/><path d="m814.88 276.66h76.91v36.05h-76.91z"/></g><path d="m853.33 312.71v32.57" stroke-width="2.66"/></g><path d="m860.08 204.68h41.34" opacity=".5" stroke-width="2.71"/><path d="m879.16 240.73h21.24" opacity=".5" stroke-width="2.71"/><path d="m120.63 276.41h-35.52" opacity=".5" stroke-width="2.66"/><path d="m196.69 239.21h-42.63" opacity=".5" stroke-width="2.66"/><path d="m248.31 202.43h-42.63" opacity=".5" stroke-width="2.66"/><path d="m133.16 239.47h-17.95" opacity=".5" stroke-width="2.66"/></g><rect fill="#051627" height="232.33" rx="12.23" width="337.34" x="349.69" y="67.06"/><path d="m349.69 267.62v19.55a12.22 12.22 0 0 0 12.22 12.22h312.88a12.22 12.22 0 0 0 12.21-12.22v-19.55z" fill="#ced2df"/><path d="m360.97 77.53h314.76v179.71h-314.76z" fill="#0572ec"/><path d="m570.54 340.32-10.18-3.6a6.55 6.55 0 0 1 -4.32-5.47l-3.46-31.86h-71.38l-3.46 31.86a6.58 6.58 0 0 1 -4.33 5.47l-10.17 3.6a1.19 1.19 0 0 0 .39 2.32h106.51a1.19 1.19 0 0 0 .4-2.32z" fill="#051627"/><path d="m0 340.68h1040v59.77h-1040z" fill="#02346e"/><rect fill="#02346e" height="120.62" rx="10.18" width="174.81" x="432.29" y="111"/><path d="m432.51 159.87h174.84v7.81h-174.84z" fill="#051627" opacity=".44"/><path d="m432.34 168.92h174.84v7.81h-174.84z" fill="#051627" opacity=".44"/><rect fill="#051627" height="12.39" opacity=".55" rx="6.19" width="85" x="479.04" y="200.11"/><path d="m361.1 77.53h314.51v17.32h-314.51z" fill="#034ea6"/><path d="m754.13 308.4h29.71v29.71h-29.71z" fill="#66cbff" transform="matrix(-1 0 0 -1 1537.98 646.51)"/><path d="m360.97 235.35h62.75v21.88h-62.75z" fill="#034ea6"/><path d="m373.58 235.35h-9.31v-2a2.65 2.65 0 0 1 2.65-2.65h4a2.65 2.65 0 0 1 2.65 2.65z" fill="#fff"/><path d="m389.13 235.35h-9.32v-2a2.65 2.65 0 0 1 2.65-2.65h4a2.66 2.66 0 0 1 2.66 2.65z" fill="#fff"/><path d="m404.67 235.35h-9.32v-2a2.65 2.65 0 0 1 2.65-2.65h4a2.65 2.65 0 0 1 2.65 2.65z" fill="#fff"/><path d="m420.21 235.35h-9.31v-2a2.65 2.65 0 0 1 2.65-2.65h4a2.65 2.65 0 0 1 2.65 2.65z" fill="#fff"/><path d="m360.97 213.94h62.75v21.88h-62.75z" fill="#02346e"/><path d="m373.58 213.94h-9.31v-2a2.65 2.65 0 0 1 2.65-2.65h4a2.65 2.65 0 0 1 2.65 2.65z" fill="#034ea6"/><path d="m389.13 213.94h-9.32v-2a2.65 2.65 0 0 1 2.65-2.65h4a2.66 2.66 0 0 1 2.66 2.65z" fill="#034ea6"/><path d="m404.67 213.94h-9.32v-2a2.65 2.65 0 0 1 2.65-2.64h4a2.65 2.65 0 0 1 2.65 2.65z" fill="#034ea6"/><path d="m420.21 213.94h-9.31v-2a2.65 2.65 0 0 1 2.65-2.65h4a2.65 2.65 0 0 1 2.65 2.65z" fill="#034ea6"/><path d="m259.27 225.74h50.73a9.28 9.28 0 0 1 9.28 9.28v123.9a10.09 10.09 0 0 1 -10.08 10.08h-49.34a9.87 9.87 0 0 1 -9.87-9.87v-124.13a9.28 9.28 0 0 1 9.28-9.26z" fill="#051627"/><path d="m319.29 238.41v-6.2a6.27 6.27 0 0 0 -6-6.47h-57.29a6.27 6.27 0 0 0 -6 6.47v6.2z" fill="#66cbff"/><path d="m319.29 358.56v4.25a6.21 6.21 0 0 1 -6 6.2h-57.29a6.15 6.15 0 0 1 -6-6.47v-4.25z" fill="#66cbff"/><path d="m249.79 334.83h69.49v24.23h-69.49z" fill="#034ea6"/><path d="m263.76 334.83h-10.32v-2.2a2.94 2.94 0 0 1 2.94-2.94h4.44a2.94 2.94 0 0 1 2.94 2.94z" fill="#0a65c1"/><path d="m281 334.83h-10.35v-2.2a2.94 2.94 0 0 1 2.94-2.94h4.41a2.94 2.94 0 0 1 2.94 2.94z" fill="#0a65c1"/><path d="m298.18 334.83h-10.31v-2.2a2.94 2.94 0 0 1 2.93-2.94h4.45a2.94 2.94 0 0 1 2.93 2.94z" fill="#0a65c1"/><path d="m315.4 334.83h-10.32v-2.2a2.94 2.94 0 0 1 2.93-2.94h4.45a2.94 2.94 0 0 1 2.94 2.94z" fill="#0a65c1"/><path d="m261.48 288.97h37.47v26.17h-37.47z" fill="#02346e"/><path d="m276.54 289h-11.12v-2.4a3.16 3.16 0 0 1 3.16-3.17h4.8a3.16 3.16 0 0 1 3.16 3.17z" fill="#034ea6"/><path d="m295 289h-11.11v-2.4a3.17 3.17 0 0 1 3.17-3.17h4.79a3.17 3.17 0 0 1 3.15 3.17z" fill="#034ea6"/><path d="m360.97 191.93h31.52v22.01h-31.52z" fill="#034ea6"/><path d="m373.64 191.93h-9.36v-2a2.66 2.66 0 0 1 2.67-2.66h4a2.66 2.66 0 0 1 2.66 2.66z" fill="#0a65c1"/><path d="m389.18 191.93h-9.36v-2a2.66 2.66 0 0 1 2.67-2.66h4a2.66 2.66 0 0 1 2.66 2.66z" fill="#0a65c1"/><path d="m123.2 361.04h85.23v39.24h-85.23z" fill="#034ea6"/><path d="m145.81 361h-16.7v-3.57a4.74 4.74 0 0 1 4.75-4.75h7.2a4.75 4.75 0 0 1 4.75 4.75z" fill="#0a65c1"/><path d="m173.68 361h-16.68v-3.57a4.75 4.75 0 0 1 4.75-4.75h7.2a4.75 4.75 0 0 1 4.75 4.75z" fill="#0a65c1"/><path d="m201.55 361h-16.7v-3.57a4.75 4.75 0 0 1 4.75-4.75h7.2a4.74 4.74 0 0 1 4.75 4.75z" fill="#0a65c1"/><path d="m523.1 357.9h311.31v7.09h-311.31z" fill="#ced2df"/><path d="m559.6 189.71h238.31a6.49 6.49 0 0 1 6.49 6.49v161.7a0 0 0 0 1 0 0h-251.29a0 0 0 0 1 0 0v-161.69a6.49 6.49 0 0 1 6.49-6.5z" fill="#051627"/><path d="m557.68 195.24h241.09v153.67h-241.09z" fill="#66cbff"/><path d="m680 365h-156.9s3.87 6.35 28.32 6.35h254.67c24.45 0 28.32-6.35 28.32-6.35z" fill="#051627"/><path d="m656.58 357.9c0 2.58 1.49 4.67 3.33 4.67h36.63c1.84 0 3.33-2.09 3.33-4.67z" fill="#656e76"/><rect fill="#0572ec" height="87.3" rx="7.31" width="144.75" x="584.2" y="231.86"/><circle cx="592.42" cy="239.66" fill="#02346e" r="3.34"/><circle cx="603.02" cy="239.66" fill="#034ea6" r="3.34"/><rect fill="#02346e" height="14.27" rx="6.47" width="72.19" x="620.73" y="253.55"/><rect fill="#02346e" height="14.27" rx="6.47" width="72.19" x="621.15" y="274.11"/><path d="m752.27 327.11h31.21v21.8h-31.21z" fill="#034ea6"/><path d="m705.83 327.11h46.44v21.77h-46.44z" fill="#0572ec"/><path d="m705.83 305.31h31.21v21.8h-31.21z" fill="#034ea6"/><path d="m705.83 283.51h31.21v21.8h-31.21z" fill="#02346e"/><path d="m733.76 283.51h-9.26v-2a2.64 2.64 0 0 1 2.63-2.64h4a2.64 2.64 0 0 1 2.63 2.64z" fill="#064a8e"/><path d="m752.27 305.31h31.21v21.91h-31.21z" fill="#02346e"/><path d="m737.04 305.33h15.23v21.89h-15.23z" fill="#051627"/><path d="m737.04 283.55h46.44v21.77h-46.44z" fill="#0572ec"/><path d="m749.59 283.55h-9.27v-2a2.64 2.64 0 0 1 2.64-2.64h4a2.64 2.64 0 0 1 2.64 2.64z" fill="#268fef"/><path d="m765.05 283.55h-9.27v-2a2.64 2.64 0 0 1 2.64-2.64h4a2.64 2.64 0 0 1 2.64 2.64z" fill="#268fef"/><path d="m780.51 283.55h-9.27v-2a2.64 2.64 0 0 1 2.64-2.64h4a2.64 2.64 0 0 1 2.64 2.64z" fill="#66cbff"/><path d="m717.45 283.65v-14.75a26.42 26.42 0 0 1 26.42-26.42 26.42 26.42 0 0 1 26.42 26.42v14.75h10.19v-15.55a36.25 36.25 0 0 0 -36.24-36.24 36.25 36.25 0 0 0 -36.24 36.24v15.55z" fill="#fff"/><path d="m557.64 195.24h241.13v13.12h-241.13z" fill="#0572ec"/><path d="m853.33 365.98h97.57v34.02h-97.57z" fill="#034ea6"/><path d="m931.3 366h14.49v-3.09a4.13 4.13 0 0 0 -4.13-4.13h-6.24a4.13 4.13 0 0 0 -4.12 4.13z" fill="#0a65c1"/><path d="m907.13 366h14.49v-3.09a4.13 4.13 0 0 0 -4.13-4.13h-6.24a4.13 4.13 0 0 0 -4.12 4.13z" fill="#0a65c1"/><path d="m883 366h14.49v-3.09a4.13 4.13 0 0 0 -4.12-4.13h-6.24a4.13 4.13 0 0 0 -4.13 4.13z" fill="#0a65c1"/><path d="m858.8 366h14.48v-3.09a4.12 4.12 0 0 0 -4.12-4.13h-6.24a4.12 4.12 0 0 0 -4.12 4.13z" fill="#0a65c1"/><path d="m497.87 167.67a22.06 22.06 0 1 0 22.06-22 22.06 22.06 0 0 0 -22.06 22z" fill="#0a2d4d" opacity=".29"/><path d="m499 167.67a20.92 20.92 0 1 0 20.91-20.91 20.91 20.91 0 0 0 -20.91 20.91z" fill="#fff" fill-rule="evenodd"/><path d="m519.93 150.56a17.12 17.12 0 1 1 -17.11 17.11 17.11 17.11 0 0 1 17.11-17.11" fill="#1a8cff" fill-rule="evenodd"/><path d="m520 155.12a12.55 12.55 0 1 1 -12.64 12.64 12.55 12.55 0 0 1 12.64-12.64z" fill="#f7f7f7" fill-rule="evenodd"/><path d="m525.64 167.67a5.71 5.71 0 1 1 -5.71-5.7 5.71 5.71 0 0 1 5.71 5.7z" fill-opacity=".05" fill-rule="evenodd"/><path d="m522 158.68a1.05 1.05 0 0 1 1 1.1v8.54a.77.77 0 0 1 -.2.52l-.61.68a.8.8 0 0 0 0 1l.61.69a.73.73 0 0 1 .2.52v4.08a1.06 1.06 0 0 1 -1 1.11h-4.23a1.05 1.05 0 0 1 -1-1.11v-8.53a.77.77 0 0 1 .19-.52l.62-.69a.8.8 0 0 0 0-1.05l-.62-.68a.81.81 0 0 1 -.19-.52v-4.09a1 1 0 0 1 1-1.1z" fill="#0a2d4d"/><circle cx="370.05" cy="85.55" fill="#051627" r="3.65"/><circle cx="381.54" cy="85.55" fill="#0572ec" r="3.65"/><circle cx="393.76" cy="85.55" fill="#66cbff" r="3.65"/></svg>